<?xml version="1.0" standalone="no"?>
<!DOCTYPE svg PUBLIC "-//W3C//DTD SVG 20010904//EN"
 "http://www.w3.org/TR/2001/REC-SVG-20010904/DTD/svg10.dtd">
<svg version="1.0" xmlns="http://www.w3.org/2000/svg"
 width="120.000000pt" height="120.000000pt" viewBox="0 0 120.000000 120.000000"
 preserveAspectRatio="xMidYMid meet">
<metadata>
Created by potrace 1.11, written by Peter Selinger 2001-2013
</metadata>
<g transform="translate(0.000000,120.000000) scale(0.100000,-0.100000)"
fill="#000000" stroke="none">
<path d="M246 1113 c-3 -4 -6 -21 -6 -40 l0 -33 120 0 120 0 0 39 0 40 -114 0
c-63 0 -117 -3 -120 -6z"/>
<path d="M720 1080 l0 -40 121 0 120 0 -3 38 -3 37 -117 2 -118 2 0 -39z"/>
<path d="M86 952 c-2 -4 -4 -58 -5 -120 l0 -112 40 0 39 0 0 120 0 120 -34 0
c-19 0 -37 -3 -40 -8z"/>
<path d="M480 840 l0 -120 -120 0 -120 0 0 -40 0 -40 120 0 120 0 0 40 0 40
40 0 40 0 0 120 0 120 -40 0 -40 0 0 -120z"/>
<path d="M640 840 l0 -120 40 0 40 0 0 -40 0 -40 120 0 120 0 0 40 0 40 -120
0 -120 0 0 120 0 120 -40 0 -40 0 0 -120z"/>
<path d="M1040 841 l0 -121 40 0 39 0 -2 118 -2 117 -37 3 -38 3 0 -120z"/>
<path d="M240 520 l0 -40 120 0 120 0 0 -120 0 -120 40 0 40 0 0 120 0 120
-40 0 -40 0 0 40 0 40 -120 0 -120 0 0 -40z"/>
<path d="M720 520 l0 -40 -40 0 -40 0 0 -120 0 -120 40 0 40 0 0 120 0 120
120 0 120 0 0 40 0 40 -120 0 -120 0 0 -40z"/>
<path d="M83 363 l2 -118 38 -3 37 -3 0 120 0 121 -40 0 -39 0 2 -117z"/>
<path d="M1040 359 l0 -120 38 3 37 3 2 118 2 117 -39 0 -40 0 0 -121z"/>
<path d="M242 123 l3 -38 118 -2 117 -2 0 39 0 40 -121 0 -120 0 3 -37z"/>
<path d="M720 120 l0 -39 118 2 117 2 3 38 3 37 -120 0 -121 0 0 -40z"/>
</g>
</svg>
